<svg width="35" height="35" viewBox="0 0 35 35" fill="none" xmlns="http://www.w3.org/2000/svg">
<path d="M35 17.5C35 7.83502 27.165 0 17.5 0C7.83502 0 0 7.83502 0 17.5C0 27.165 7.83502 35 17.5 35C27.165 35 35 27.165 35 17.5Z" fill="#16A4D1" fill-opacity="0.26"/>
<path d="M29.5 17.5C29.5 10.8726 24.1274 5.5 17.5 5.5C10.8726 5.5 5.5 10.8726 5.5 17.5C5.5 24.1274 10.8726 29.5 17.5 29.5C24.1274 29.5 29.5 24.1274 29.5 17.5Z" fill="#16A4D1" stroke="#16A4D1"/>
<path d="M22 17.5C22 15.0147 19.9853 13 17.5 13C15.0147 13 13 15.0147 13 17.5C13 19.9853 15.0147 22 17.5 22C19.9853 22 22 19.9853 22 17.5Z" fill="#1888AC"/>
</svg>
