<svg width="93" height="88" viewBox="0 0 93 88" fill="none" xmlns="http://www.w3.org/2000/svg">
<path d="M85.8839 5.5791H19.3165C15.3863 5.5791 12.2002 9.21359 12.2002 13.697V79.8823C12.2002 84.3657 15.3863 88.0002 19.3165 88.0002H85.8839C89.8141 88.0002 93.0002 84.3657 93.0002 79.8823V13.697C93.0002 9.21359 89.8141 5.5791 85.8839 5.5791Z" fill="#16A4D1" fill-opacity="0.18"/>
<path d="M78.6698 1H8.13026C4.19233 1 1 4.61851 1 9.08217V72.5915C1 77.0552 4.19233 80.6737 8.13026 80.6737H78.6698C82.6077 80.6737 85.8 77.0552 85.8 72.5915V9.08217C85.8 4.61851 82.6077 1 78.6698 1Z" fill="white" stroke="#1DBF73" stroke-width="0.75" stroke-miterlimit="10"/>
<path d="M76.2801 23.8945H11.3198C9.15488 23.8945 7.3999 25.8625 7.3999 28.2901V62.541C7.3999 64.9687 9.15488 66.9366 11.3198 66.9366H76.2801C78.4449 66.9366 80.1999 64.9687 80.1999 62.541V28.2901C80.1999 25.8625 78.4449 23.8945 76.2801 23.8945Z" fill="#16A4D1" fill-opacity="0.18"/>
<path d="M15.1462 43.6534C15.9392 43.6534 16.582 42.9205 16.582 42.0164C16.582 41.1123 15.9392 40.3794 15.1462 40.3794C14.3533 40.3794 13.7104 41.1123 13.7104 42.0164C13.7104 42.9205 14.3533 43.6534 15.1462 43.6534Z" fill="#16A4D1"/>
<path d="M15.1462 51.3511C15.9392 51.3511 16.582 50.6182 16.582 49.7141C16.582 48.8101 15.9392 48.0771 15.1462 48.0771C14.3533 48.0771 13.7104 48.8101 13.7104 49.7141C13.7104 50.6182 14.3533 51.3511 15.1462 51.3511Z" fill="#16A4D1"/>
<path d="M15.1462 58.6939C15.9392 58.6939 16.582 57.961 16.582 57.0569C16.582 56.1528 15.9392 55.4199 15.1462 55.4199C14.3533 55.4199 13.7104 56.1528 13.7104 57.0569C13.7104 57.961 14.3533 58.6939 15.1462 58.6939Z" fill="#16A4D1"/>
<path d="M27.1664 29.3896H16.4332C14.9788 29.3896 13.7998 30.8247 13.7998 32.5949C13.7998 34.3651 14.9788 35.8002 16.4332 35.8002H27.1664C28.6208 35.8002 29.7998 34.3651 29.7998 32.5949C29.7998 30.8247 28.6208 29.3896 27.1664 29.3896Z" fill="#1DBF73"/>
<path d="M35.0857 9.24268H10.1141C8.61507 9.24268 7.3999 10.6777 7.3999 12.4479C7.3999 14.2182 8.61507 15.6532 10.1141 15.6532H35.0857C36.5847 15.6532 37.7999 14.2182 37.7999 12.4479C37.7999 10.6777 36.5847 9.24268 35.0857 9.24268Z" fill="#1DBF73"/>
<path d="M73.1586 40.3794H20.0416C19.2455 40.3794 18.6001 41.1994 18.6001 42.211C18.6001 43.2225 19.2455 44.0426 20.0416 44.0426H73.1586C73.9547 44.0426 74.6001 43.2225 74.6001 42.211C74.6001 41.1994 73.9547 40.3794 73.1586 40.3794Z" fill="#16A4D1"/>
<path d="M53.1812 47.7056H20.0189C19.2353 47.7056 18.6001 48.5256 18.6001 49.5371C18.6001 50.5487 19.2353 51.3687 20.0189 51.3687H53.1812C53.9649 51.3687 54.6001 50.5487 54.6001 49.5371C54.6001 48.5256 53.9649 47.7056 53.1812 47.7056Z" fill="#16A4D1"/>
<path d="M24.2001 44.0426C25.0838 44.0426 25.8001 43.2225 25.8001 42.211C25.8001 41.1994 25.0838 40.3794 24.2001 40.3794C23.3164 40.3794 22.6001 41.1994 22.6001 42.211C22.6001 43.2225 23.3164 44.0426 24.2001 44.0426Z" fill="#16A4D1"/>
<path d="M24.2001 51.3687C25.0838 51.3687 25.8001 50.5487 25.8001 49.5371C25.8001 48.5256 25.0838 47.7056 24.2001 47.7056C23.3164 47.7056 22.6001 48.5256 22.6001 49.5371C22.6001 50.5487 23.3164 51.3687 24.2001 51.3687Z" fill="#16A4D1"/>
<path d="M53.1812 55.0312H20.0189C19.2353 55.0312 18.6001 55.8513 18.6001 56.8628C18.6001 57.8744 19.2353 58.6944 20.0189 58.6944H53.1812C53.9649 58.6944 54.6001 57.8744 54.6001 56.8628C54.6001 55.8513 53.9649 55.0312 53.1812 55.0312Z" fill="#16A4D1"/>
<path d="M24.2001 58.6944C25.0838 58.6944 25.8001 57.8744 25.8001 56.8628C25.8001 55.8513 25.0838 55.0312 24.2001 55.0312C23.3164 55.0312 22.6001 55.8513 22.6001 56.8628C22.6001 57.8744 23.3164 58.6944 24.2001 58.6944Z" fill="#16A4D1"/>
</svg>
